<svg xmlns="http://www.w3.org/2000/svg" xmlns:xlink="http://www.w3.org/1999/xlink" width="399" zoomAndPan="magnify" viewBox="0 0 299.25 289.500005" height="386" preserveAspectRatio="xMidYMid meet" version="1.0"><defs><clipPath id="a84b1059a4"><path d="M 5 2 L 292 2 L 292 288.140625 L 5 288.140625 Z M 5 2 " clip-rule="nonzero"/></clipPath></defs><g clip-path="url(#a84b1059a4)"><path fill="#1b1c1e" d="M 189.324219 145.707031 L 283.347656 51.6875 C 294.496094 40.546875 294.496094 22.46875 283.347656 11.320312 C 272.195312 0.179688 254.140625 0.179688 242.992188 11.320312 L 148.96875 105.34375 L 54.945312 11.328125 C 43.804688 0.179688 25.726562 0.179688 14.578125 11.328125 C 3.4375 22.46875 3.4375 40.546875 14.578125 51.695312 L 108.601562 145.707031 L 14.351562 239.960938 C 3.210938 251.101562 3.210938 269.175781 14.351562 280.316406 C 19.914062 285.890625 27.230469 288.679688 34.527344 288.679688 C 41.824219 288.679688 49.140625 285.890625 54.714844 280.316406 L 148.957031 186.074219 L 242.972656 280.089844 C 248.546875 285.664062 255.851562 288.449219 263.148438 288.449219 C 270.445312 288.449219 277.753906 285.664062 283.328125 280.089844 C 294.476562 268.949219 294.476562 250.871094 283.328125 239.730469 Z M 189.324219 145.707031 " fill-opacity="1" fill-rule="nonzero"/></g></svg>