<svg xmlns="http://www.w3.org/2000/svg" xmlns:xlink="http://www.w3.org/1999/xlink" width="579" zoomAndPan="magnify" viewBox="0 0 434.25 434.249989" height="579" preserveAspectRatio="xMidYMid meet" version="1.0"><defs><clipPath id="3a75e9fda9"><path d="M 0 0 L 433.03125 0 L 433.03125 433.03125 L 0 433.03125 Z M 0 0 " clip-rule="nonzero"/></clipPath><clipPath id="ed7621de2b"><path d="M 216.515625 0 C 96.9375 0 0 96.9375 0 216.515625 C 0 336.09375 96.9375 433.03125 216.515625 433.03125 C 336.09375 433.03125 433.03125 336.09375 433.03125 216.515625 C 433.03125 96.9375 336.09375 0 216.515625 0 Z M 216.515625 0 " clip-rule="nonzero"/></clipPath><clipPath id="60a6951fb8"><path d="M 74 76.507812 L 359 76.507812 L 359 221 L 74 221 Z M 74 76.507812 " clip-rule="nonzero"/></clipPath></defs><g clip-path="url(#3a75e9fda9)"><g clip-path="url(#ed7621de2b)"><path fill="#737feb" d="M 0 0 L 433.03125 0 L 433.03125 433.03125 L 0 433.03125 Z M 0 0 " fill-opacity="1" fill-rule="nonzero"/></g></g><path fill="#202528" d="M 284.164062 97.550781 C 279.609375 97.550781 275.941406 101.21875 275.941406 105.773438 L 275.941406 112.0625 L 319.570312 144.285156 L 319.570312 105.773438 C 319.570312 101.21875 315.882812 97.550781 311.324219 97.550781 Z M 284.164062 97.550781 " fill-opacity="1" fill-rule="evenodd"/><g clip-path="url(#60a6951fb8)"><path fill="#202528" d="M 216.472656 76.714844 L 80.140625 177.375 C 66.695312 187.3125 79.816406 207.039062 93.5 197.027344 L 99.523438 192.632812 L 99.523438 214.902344 C 99.523438 217.78125 101.863281 220.117188 104.742188 220.117188 C 107.644531 220.117188 109.960938 217.78125 109.960938 214.902344 L 109.960938 184.996094 L 216.46875 107.066406 L 322.972656 184.996094 L 322.972656 214.902344 C 322.972656 217.78125 325.308594 220.117188 328.191406 220.117188 C 331.089844 220.117188 333.410156 217.78125 333.410156 214.902344 L 333.410156 192.632812 L 339.4375 197.027344 C 353.136719 207.039062 366.257812 187.3125 352.8125 177.375 Z M 216.472656 76.714844 " fill-opacity="1" fill-rule="nonzero"/></g><path fill="#202528" d="M 145.371094 207.421875 C 141.523438 207.421875 138.117188 209.863281 136.871094 213.492188 L 122.523438 255.429688 C 125.972656 255.972656 128.910156 258.414062 130.0625 261.777344 L 134.152344 273.707031 C 135.136719 272.761719 135.980469 271.53125 136.550781 269.902344 L 144.628906 246.316406 L 144.628906 342.464844 C 144.628906 356.515625 165.667969 356.515625 165.667969 342.464844 L 165.667969 286.625 L 170.742188 286.625 L 170.742188 342.464844 C 170.742188 356.515625 191.804688 356.515625 191.804688 342.464844 L 191.804688 246.316406 L 199.886719 269.902344 C 202.222656 276.753906 209.316406 277.253906 213.769531 274.191406 C 215.683594 272.859375 216.511719 271.171875 217.214844 269.089844 L 229.167969 233.765625 L 232.089844 248.796875 L 210.628906 311.554688 L 290.894531 311.554688 L 288.816406 305.53125 C 288.535156 305.425781 288.296875 305.308594 288.03125 305.167969 C 286.097656 304.199219 284.445312 302.570312 283.578125 300.371094 C 282.710938 298.171875 282.808594 295.414062 284.015625 292.992188 L 284.320312 292.371094 L 269.429688 248.800781 L 272.335938 233.769531 L 284.628906 270.082031 C 286.140625 274.597656 289.863281 275.726562 293.265625 274.695312 L 299.316406 262.683594 L 279.769531 212.023438 C 278.378906 209.265625 275.539062 207.507812 272.429688 207.488281 L 262.035156 207.488281 C 255.484375 210.652344 247.644531 211.074219 240.429688 207.972656 C 240.109375 207.828125 239.78125 207.648438 239.464844 207.488281 L 229.046875 207.488281 C 225.945312 207.507812 223.121094 209.265625 221.707031 212.023438 C 221.707031 212.023438 215.003906 229.417969 209.699219 243.160156 L 199.542969 213.496094 C 198.3125 209.859375 194.886719 207.421875 191.058594 207.421875 L 182.070312 207.421875 C 175.242188 211.273438 166.777344 212.019531 159.015625 208.691406 C 158.128906 208.308594 157.28125 207.886719 156.476562 207.421875 Z M 145.371094 207.421875 " fill-opacity="1" fill-rule="nonzero"/><path fill="#202528" d="M 229.167969 316.152344 L 229.167969 342.730469 C 229.167969 355.765625 248.714844 355.765625 248.714844 342.730469 L 248.714844 316.152344 Z M 229.167969 316.152344 " fill-opacity="1" fill-rule="nonzero"/><path fill="#202528" d="M 252.828125 316.152344 L 252.828125 342.730469 C 252.121094 356.410156 273.023438 356.410156 272.335938 342.730469 L 272.335938 316.152344 Z M 252.828125 316.152344 " fill-opacity="1" fill-rule="nonzero"/><path fill="#202528" d="M 188.296875 193.09375 C 183.761719 203.59375 171.59375 208.414062 161.089844 203.898438 C 150.609375 199.363281 145.796875 187.1875 150.3125 176.710938 C 154.84375 166.230469 167.015625 161.390625 177.496094 165.90625 C 188.015625 170.441406 192.832031 182.617188 188.296875 193.09375 Z M 188.296875 193.09375 " fill-opacity="1" fill-rule="evenodd"/><path fill="#202528" d="M 107.085938 230.074219 C 101.886719 230.054688 96.929688 233.078125 94.730469 238.152344 C 91.808594 244.90625 94.933594 252.765625 101.683594 255.6875 C 108.472656 258.609375 116.335938 255.488281 119.253906 248.710938 C 122.152344 241.945312 119.054688 234.082031 112.261719 231.160156 C 110.566406 230.4375 108.820312 230.097656 107.085938 230.074219 Z M 107.085938 230.074219 " fill-opacity="1" fill-rule="nonzero"/><path fill="#202528" d="M 91.546875 259.03125 C 89.066406 259.050781 86.851562 260.625 86.0625 262.964844 L 74.878906 295.589844 C 72.359375 302.90625 83.324219 306.675781 85.839844 299.363281 L 91.058594 284.144531 L 91.058594 346.21875 C 91.058594 355.269531 104.644531 355.269531 104.644531 346.21875 L 104.644531 310.160156 L 107.929688 310.160156 L 107.929688 346.21875 C 107.929688 355.269531 121.507812 355.269531 121.507812 346.21875 L 121.507812 284.144531 L 126.707031 299.363281 C 129.230469 306.679688 140.191406 302.90625 137.667969 295.589844 L 126.503906 262.964844 C 125.699219 260.625 123.503906 259.050781 121.027344 259.03125 L 115.222656 259.03125 C 110.828125 261.535156 105.347656 262.015625 100.328125 259.855469 C 99.769531 259.613281 99.21875 259.332031 98.699219 259.03125 Z M 91.546875 259.03125 " fill-opacity="1" fill-rule="nonzero"/><path fill="#202528" d="M 269.777344 193.136719 C 265.242188 203.660156 253.050781 208.472656 242.535156 203.957031 C 232.027344 199.425781 227.214844 187.210938 231.730469 176.730469 C 236.285156 166.234375 248.457031 161.394531 258.953125 165.929688 C 269.492188 170.441406 274.3125 182.636719 269.777344 193.136719 Z M 269.777344 193.136719 " fill-opacity="1" fill-rule="evenodd"/><path fill="#202528" d="M 322.679688 230.074219 C 317.476562 230.054688 312.496094 233.078125 310.300781 238.152344 C 307.378906 244.929688 310.480469 252.804688 317.253906 255.707031 C 324.042969 258.648438 331.925781 255.527344 334.847656 248.730469 C 337.769531 241.964844 334.664062 234.101562 327.871094 231.160156 C 326.179688 230.4375 324.410156 230.097656 322.679688 230.074219 Z M 322.679688 230.074219 " fill-opacity="1" fill-rule="nonzero"/><path fill="#202528" d="M 308.566406 259.09375 C 306.574219 259.09375 304.738281 260.222656 303.832031 262.015625 L 287.367188 294.683594 C 284.183594 301.015625 293.65625 305.8125 296.859375 299.480469 L 308.648438 276.046875 L 308.648438 284.511719 L 296.679688 326.25 L 308.648438 326.25 L 308.648438 346.382812 C 308.648438 354.785156 321.261719 354.785156 321.261719 346.382812 L 321.261719 326.25 L 323.90625 326.25 L 323.90625 346.382812 C 323.460938 355.207031 336.964844 355.207031 336.5 346.382812 L 336.5 326.25 L 348.492188 326.25 L 336.5 284.492188 L 336.5 276.027344 L 348.308594 299.484375 C 351.515625 305.816406 360.984375 301.019531 357.800781 294.6875 L 341.316406 262.019531 C 340.40625 260.226562 338.578125 259.097656 336.582031 259.097656 L 329.867188 259.097656 C 325.636719 261.128906 320.578125 261.414062 315.921875 259.402344 C 315.703125 259.300781 315.5 259.199219 315.300781 259.097656 L 308.566406 259.097656 Z M 308.566406 259.09375 " fill-opacity="1" fill-rule="nonzero"/></svg>