<svg xmlns="http://www.w3.org/2000/svg" xmlns:xlink="http://www.w3.org/1999/xlink" width="400" zoomAndPan="magnify" viewBox="0 0 300 299.999988" height="400" preserveAspectRatio="xMidYMid meet" version="1.0"><defs><clipPath id="d38eb26128"><path d="M 150 0 C 67.15625 0 0 67.15625 0 150 C 0 232.84375 67.15625 300 150 300 C 232.84375 300 300 232.84375 300 150 C 300 67.15625 232.84375 0 150 0 Z M 150 0 " clip-rule="nonzero"/></clipPath><clipPath id="4a1f7c1d4b"><path d="M 56.53125 43.636719 L 243.28125 43.636719 L 243.28125 256.636719 L 56.53125 256.636719 Z M 56.53125 43.636719 " clip-rule="nonzero"/></clipPath></defs><g clip-path="url(#d38eb26128)"><rect x="-30" width="360" fill="#fe7580" y="-29.999999" height="359.999986" fill-opacity="1"/></g><g clip-path="url(#4a1f7c1d4b)"><path fill="#202528" d="M 151.507812 178.703125 L 151.507812 196.007812 C 151.507812 196.5 151.75 196.917969 152.171875 197.164062 L 165.71875 204.984375 C 166.609375 205.5 167.71875 204.859375 167.71875 203.828125 L 167.71875 180.71875 L 223.621094 148.445312 L 241.242188 158.617188 C 242.65625 159.433594 243.46875 160.835938 243.46875 162.46875 L 243.46875 221.886719 C 243.46875 223.519531 242.65625 224.921875 241.242188 225.738281 L 189.785156 255.445312 C 188.371094 256.261719 186.753906 256.261719 185.339844 255.445312 L 133.882812 225.738281 C 132.46875 224.921875 131.660156 223.519531 131.660156 221.886719 L 131.660156 168.117188 L 147.539062 177.285156 C 148.792969 178.007812 150.136719 178.484375 151.507812 178.703125 Z M 155.539062 44.585938 C 154.128906 43.769531 152.507812 43.769531 151.09375 44.585938 L 99.636719 74.296875 C 98.222656 75.113281 97.414062 76.515625 97.414062 78.148438 L 97.414062 137.5625 C 97.414062 139.195312 98.222656 140.597656 99.636719 141.414062 L 151.09375 171.125 C 152.507812 171.941406 154.128906 171.941406 155.539062 171.125 L 207 141.414062 C 208.410156 140.597656 209.222656 139.195312 209.222656 137.5625 L 209.222656 78.148438 C 209.222656 76.515625 208.410156 75.113281 207 74.296875 L 189.375 64.121094 L 133.472656 96.398438 L 133.472656 119.507812 C 133.472656 120.535156 132.363281 121.175781 131.472656 120.660156 L 117.925781 112.839844 C 117.503906 112.597656 117.261719 112.175781 117.261719 111.6875 L 117.261719 87.039062 L 173.164062 54.761719 Z M 90.300781 119.9375 L 76.367188 127.980469 L 76.367188 152.628906 C 76.367188 153.121094 76.613281 153.539062 77.035156 153.785156 L 90.578125 161.605469 C 91.472656 162.121094 92.582031 161.480469 92.582031 160.449219 L 92.582031 144.484375 C 93.503906 145.714844 94.683594 146.769531 96.078125 147.574219 L 124.546875 164.011719 L 124.546875 206.351562 L 114.648438 212.066406 C 113.234375 212.882812 111.617188 212.882812 110.203125 212.066406 L 58.746094 182.359375 C 57.332031 181.542969 56.523438 180.140625 56.523438 178.507812 L 56.523438 119.089844 C 56.523438 117.457031 57.332031 116.054688 58.746094 115.238281 L 90.300781 97.023438 Z M 90.300781 119.9375 " fill-opacity="1" fill-rule="evenodd"/></g></svg>