<svg xmlns="http://www.w3.org/2000/svg" xmlns:xlink="http://www.w3.org/1999/xlink" width="400" zoomAndPan="magnify" viewBox="0 0 300 287.999989" height="384" preserveAspectRatio="xMidYMid meet" version="1.0"><path fill="#202528" d="M 299.378906 137.027344 C 299.378906 135.835938 298.980469 134.640625 298.582031 133.445312 C 298.183594 133.046875 297.785156 132.25 297.386719 131.851562 C 296.988281 131.453125 296.988281 131.054688 296.589844 130.65625 L 246 79.667969 C 242.414062 76.082031 236.839844 76.082031 233.253906 79.667969 C 229.667969 83.253906 229.667969 90.023438 233.253906 93.609375 L 268.707031 130.257812 L 92.242188 130.257812 C 87.460938 130.257812 83.078125 134.242188 83.078125 139.417969 C 83.078125 144.199219 87.0625 148.582031 92.242188 148.582031 L 268.707031 148.582031 L 233.253906 183.238281 C 229.667969 186.820312 229.667969 192 233.253906 195.585938 C 236.839844 199.171875 242.414062 198.773438 246 195.1875 L 296.988281 144.199219 C 297.386719 143.800781 297.785156 143.402344 297.785156 142.605469 C 298.183594 142.207031 298.582031 141.808594 298.582031 141.011719 C 299.378906 139.417969 299.378906 138.222656 299.378906 137.027344 Z M 299.378906 137.027344 " fill-opacity="1" fill-rule="nonzero"/><path fill="#202528" d="M 180.671875 199.964844 L 180.671875 270.074219 L 18.546875 270.074219 L 18.546875 17.925781 L 180.671875 17.925781 L 180.671875 83.652344 L 198.597656 83.652344 L 198.597656 17.925781 C 198.597656 7.96875 191.027344 0 181.867188 0 L 17.351562 0 C 8.191406 0 0.621094 7.96875 0.621094 17.925781 L 0.621094 270.074219 C 0.621094 280.03125 8.191406 288 17.351562 288 L 181.867188 288 C 191.027344 288 198.597656 280.03125 198.597656 270.074219 L 198.597656 199.964844 Z M 180.671875 199.964844 " fill-opacity="1" fill-rule="nonzero"/></svg>