<svg xmlns="http://www.w3.org/2000/svg" xmlns:xlink="http://www.w3.org/1999/xlink" width="111" zoomAndPan="magnify" viewBox="0 0 83.25 91.499997" height="122" preserveAspectRatio="xMidYMid meet" version="1.0"><defs><clipPath id="d7748942a1"><path d="M 44.46875 42.707031 L 45.746094 42.707031 L 45.746094 53.90625 L 44.46875 53.90625 Z M 44.46875 42.707031 " clip-rule="nonzero"/></clipPath><clipPath id="2fe4520458"><path d="M 45.460938 42.984375 L 44.953125 43.042969 L 44.695312 53.660156 L 45.460938 53.660156 Z M 45.460938 42.984375 " clip-rule="nonzero"/></clipPath><clipPath id="69fd24175f"><path d="M 47.027344 23 L 47.984375 23 L 47.984375 26.394531 L 47.027344 26.394531 Z M 47.027344 23 " clip-rule="nonzero"/></clipPath><clipPath id="dd13adf5c1"><path d="M 47.878906 26.039062 L 47.878906 23.015625 L 47.117188 23.015625 L 47.117188 26.34375 C 47.175781 26.324219 47.246094 26.304688 47.324219 26.253906 L 47.679688 26.125 " clip-rule="nonzero"/></clipPath><clipPath id="e38441b8eb"><path d="M 44.46875 7.199219 L 62 7.199219 L 62 27.351562 L 44.46875 27.351562 Z M 44.46875 7.199219 " clip-rule="nonzero"/></clipPath><clipPath id="700c21145e"><path d="M 61.933594 21.617188 L 61.933594 18.476562 L 45.460938 18.476562 L 45.460938 7.445312 L 44.695312 7.445312 L 44.695312 19.238281 L 61.167969 19.238281 L 61.167969 20.84375 L 44.695312 20.84375 L 44.695312 27.257812 C 44.953125 27.175781 45.203125 27.066406 45.460938 26.980469 L 45.460938 21.636719 L 61.933594 21.636719 Z M 61.933594 21.617188 " clip-rule="nonzero"/></clipPath><clipPath id="0ae15b58dd"><path d="M 47.117188 16.105469 L 61.933594 16.105469 L 61.933594 16.871094 L 47.117188 16.871094 Z M 47.117188 16.105469 " clip-rule="nonzero"/></clipPath><clipPath id="958105ff28"><path d="M 42.226562 42.386719 L 47.984375 42.386719 L 47.984375 55.824219 L 42.226562 55.824219 Z M 42.226562 42.386719 " clip-rule="nonzero"/></clipPath><clipPath id="29475c1542"><path d="M 47.117188 42.707031 L 47.117188 54.886719 L 43.113281 54.886719 L 43.113281 43.152344 L 42.347656 43.152344 L 42.347656 55.640625 L 47.859375 55.640625 L 47.859375 42.519531 C 47.621094 42.578125 47.375 42.648438 47.117188 42.707031 " clip-rule="nonzero"/></clipPath><clipPath id="3f5c63bcc1"><path d="M 28.152344 20.632812 L 43.1875 20.632812 L 43.1875 28.3125 L 28.152344 28.3125 Z M 28.152344 20.632812 " clip-rule="nonzero"/></clipPath><clipPath id="d7719ad08c"><path d="M 42.367188 21.617188 L 42.367188 28.097656 C 42.625 28.007812 42.875 27.929688 43.132812 27.839844 L 43.132812 20.875 L 28.304688 20.875 L 28.304688 21.636719 L 42.367188 21.636719 Z M 42.367188 21.617188 " clip-rule="nonzero"/></clipPath><clipPath id="25abedf69a"><path d="M 42.367188 5.117188 L 47.878906 5.117188 L 47.878906 5.859375 L 42.367188 5.859375 Z M 47.117188 5.859375 L 47.878906 5.859375 L 47.878906 14.5 L 47.117188 14.5 Z M 42.367188 5.859375 L 43.132812 5.859375 L 43.132812 16.105469 L 42.367188 16.105469 Z M 28.304688 16.105469 L 43.132812 16.105469 L 43.132812 16.851562 L 28.304688 16.851562 Z M 28.304688 16.851562 L 29.066406 16.851562 L 29.066406 18.476562 L 28.304688 18.476562 Z M 28.304688 18.476562 L 43.132812 18.476562 L 43.132812 19.238281 L 28.304688 19.238281 Z M 28.304688 18.476562 " clip-rule="nonzero"/></clipPath><clipPath id="d7a41fa1dd"><path d="M 27.191406 22.875 L 63.660156 22.875 L 63.660156 44.628906 L 27.191406 44.628906 Z M 27.191406 22.875 " clip-rule="nonzero"/></clipPath><clipPath id="cf49885ab4"><path d="M 28.097656 25.125 C 29.515625 27.304688 31.566406 28.664062 34.171875 28.941406 C 36.839844 29.21875 39.535156 28.496094 42.050781 27.691406 L 50.1875 24.660156 C 52.476562 23.835938 54.90625 22.984375 57.363281 22.925781 C 59.878906 22.886719 62.128906 23.964844 63.488281 26.125 L 63.507812 26.445312 C 61.515625 26.296875 60.753906 28.394531 60.226562 29.703125 C 59.257812 32.121094 58.363281 34.550781 56.835938 36.710938 C 54.804688 39.59375 51.824219 41.816406 48.453125 42.835938 C 44.855469 43.917969 41.078125 43.660156 37.421875 43.28125 L 32.300781 42.945312 C 31.089844 43.003906 29.820312 43.28125 29.097656 44.324219 L 28.039062 44.046875 C 28.316406 42.726562 28.859375 41.734375 29.523438 40.933594 C 31.089844 38.980469 33.4375 38.070312 35.875 37.902344 L 36.453125 38.070312 L 36.859375 38.664062 C 34.210938 38.851562 31.941406 39.742188 30.445312 41.648438 C 29.871094 42.390625 29.324219 43.320312 29.128906 44.234375 L 28.453125 43.855469 C 29.574219 41.585938 32.855469 42.101562 34.996094 42.292969 C 38.703125 42.648438 42.425781 43.164062 46.132812 42.441406 C 49.859375 41.695312 53.230469 39.574219 55.519531 36.554688 C 57.175781 34.371094 58.144531 31.875 59.136719 29.347656 C 59.8125 27.652344 60.644531 25.472656 62.804688 25.640625 L 62.675781 25.847656 C 61.464844 24.175781 59.730469 23.578125 57.679688 23.6875 C 55.144531 23.835938 52.683594 24.75 50.308594 25.640625 L 42.148438 28.625 C 39.671875 29.386719 37.027344 29.960938 34.417969 29.644531 C 31.367188 29.269531 28.851562 27.484375 27.195312 24.949219 L 27.195312 24.628906 L 27.957031 24.949219 " clip-rule="nonzero"/></clipPath><clipPath id="dd11b931cc"><path d="M 27 24.792969 L 52.464844 24.792969 L 52.464844 38.550781 L 27 38.550781 Z M 27 24.792969 " clip-rule="nonzero"/></clipPath><clipPath id="5cf2bda149"><path d="M 28.136719 25.234375 C 29.644531 29.636719 32.308594 34.105469 36.609375 36.265625 C 39.871094 37.890625 43.726562 37.792969 46.796875 35.800781 C 48.699219 34.550781 50.148438 32.707031 51.160156 30.695312 L 52.328125 30.992188 C 50.296875 35.015625 46.964844 37.921875 42.734375 38.21875 C 38.433594 38.515625 34.410156 36.167969 31.636719 33.023438 C 29.5625 30.675781 28.117188 27.859375 27.105469 24.917969 L 28.039062 24.917969 " clip-rule="nonzero"/></clipPath><clipPath id="e7c91c3102"><path d="M 14.394531 74.058594 L 76.457031 74.058594 L 76.457031 75 L 14.394531 75 Z M 14.394531 74.058594 " clip-rule="nonzero"/></clipPath><clipPath id="0a2e9a6fa8"><path d="M 14.957031 74.917969 L 76.066406 74.917969 C 76.273438 74.917969 76.449219 74.75 76.449219 74.539062 L 76.28125 74.164062 L 14.957031 74.164062 C 14.746094 74.164062 14.578125 74.332031 14.578125 74.539062 L 14.746094 74.917969 " clip-rule="nonzero"/></clipPath><clipPath id="df2c495861"><path d="M 14.074219 73.417969 L 77 73.417969 L 77 75.660156 L 14.074219 75.660156 Z M 14.074219 73.417969 " clip-rule="nonzero"/></clipPath><clipPath id="208458f226"><path d="M 14.957031 74.421875 L 76.066406 74.421875 L 76.066406 74.917969 L 76.066406 74.421875 L 75.957031 74.472656 L 76.449219 74.53125 L 75.957031 74.53125 L 76.003906 74.648438 L 76.066406 74.152344 L 76.066406 74.648438 L 14.957031 74.648438 L 15.074219 74.601562 L 14.578125 74.53125 L 15.074219 74.53125 L 15.023438 74.410156 L 14.964844 74.90625 L 14.964844 74.410156 M 14.964844 75.402344 L 14.09375 75.007812 L 14.09375 74.519531 L 14.488281 73.648438 L 76.066406 73.648438 C 76.550781 73.648438 76.945312 74.035156 76.945312 74.519531 L 76.550781 75.394531 L 14.957031 75.394531 Z M 14.964844 75.402344 " clip-rule="nonzero"/></clipPath><clipPath id="b84b9ecc29"><path d="M 14.394531 61 L 25.273438 61 L 25.273438 75 L 14.394531 75 Z M 14.394531 61 " clip-rule="nonzero"/></clipPath><clipPath id="29fb45c5e5"><path d="M 15.261719 74.757812 L 25.015625 61.824219 C 25.144531 61.65625 25.113281 61.417969 24.933594 61.289062 L 24.527344 61.199219 L 14.648438 74.300781 C 14.519531 74.472656 14.558594 74.707031 14.71875 74.835938 L 15.125 74.925781 " clip-rule="nonzero"/></clipPath><clipPath id="3ad9bc37f8"><path d="M 13.757812 60.304688 L 25.914062 60.304688 L 25.914062 75.660156 L 13.757812 75.660156 Z M 13.757812 60.304688 " clip-rule="nonzero"/></clipPath><clipPath id="2a05a82794"><path d="M 14.867188 74.460938 L 24.617188 61.527344 L 25.015625 61.824219 L 24.617188 61.527344 L 24.589844 61.648438 L 24.636719 61.6875 L 24.757812 61.714844 L 24.796875 61.667969 L 15.042969 74.601562 L 14.648438 74.300781 L 15.042969 74.601562 L 15.074219 74.480469 L 14.726562 74.835938 L 15.023438 74.441406 L 14.90625 74.410156 L 14.867188 74.460938 M 15.660156 75.054688 L 15.261719 74.757812 L 15.660156 75.054688 L 14.816406 75.523438 L 14.429688 75.234375 L 13.964844 74.390625 L 24.003906 61.070312 L 24.398438 61.367188 L 24.003906 61.070312 L 24.847656 60.605469 L 24.933594 61.289062 L 25.234375 60.894531 L 25.699219 61.734375 L 15.648438 75.066406 Z M 15.660156 75.054688 " clip-rule="nonzero"/></clipPath><clipPath id="ce6b6312a4"><path d="M 24.3125 61 L 66.539062 61 L 66.539062 62 L 24.3125 62 Z M 24.3125 61 " clip-rule="nonzero"/></clipPath><clipPath id="c41cf53762"><path d="M 24.738281 61.953125 L 66.003906 61.953125 C 66.214844 61.953125 66.390625 61.785156 66.390625 61.578125 L 66.222656 61.199219 L 24.738281 61.199219 C 24.527344 61.199219 24.359375 61.367188 24.359375 61.578125 L 24.527344 61.953125 " clip-rule="nonzero"/></clipPath><clipPath id="12411e8d6b"><path d="M 23.671875 60.621094 L 67 60.621094 L 67 62.542969 L 23.671875 62.542969 Z M 23.671875 60.621094 " clip-rule="nonzero"/></clipPath><clipPath id="6e561ba5e9"><path d="M 24.738281 61.457031 L 66.003906 61.457031 L 66.003906 61.953125 L 66.003906 61.457031 L 65.894531 61.507812 L 66.390625 61.566406 L 65.894531 61.566406 L 65.945312 61.6875 L 66.003906 61.191406 L 66.003906 61.6875 L 24.738281 61.6875 L 24.855469 61.636719 L 24.359375 61.566406 L 24.855469 61.566406 L 24.804688 61.449219 L 24.746094 61.945312 L 24.746094 61.449219 M 24.746094 62.441406 L 23.875 62.042969 L 23.875 61.558594 L 24.269531 60.683594 L 66.003906 60.683594 C 66.492188 60.683594 66.886719 61.082031 66.886719 61.558594 L 66.492188 62.429688 L 24.738281 62.429688 Z M 24.746094 62.441406 " clip-rule="nonzero"/></clipPath><clipPath id="8093481ff6"><path d="M 65.582031 51.027344 L 73.578125 51.027344 L 73.578125 62 L 65.582031 62 Z M 65.582031 51.027344 " clip-rule="nonzero"/></clipPath><clipPath id="8f6040ea48"><path d="M 66.332031 61.785156 L 73.28125 51.734375 C 73.398438 51.566406 73.359375 51.328125 73.179688 51.199219 L 72.765625 51.121094 L 65.707031 61.347656 C 65.589844 61.519531 65.628906 61.765625 65.808594 61.875 L 66.214844 61.953125 " clip-rule="nonzero"/></clipPath><clipPath id="9e8234e56c"><path d="M 65 50.386719 L 74 50.386719 L 74 62.863281 L 65 62.863281 Z M 65 50.386719 " clip-rule="nonzero"/></clipPath><clipPath id="1d224fbecd"><path d="M 65.925781 61.507812 L 72.875 51.457031 C 72.832031 51.507812 72.851562 51.585938 72.902344 51.617188 L 73.191406 51.210938 L 72.914062 51.617188 L 73.03125 51.636719 L 73.070312 51.585938 L 66.125 61.636719 L 65.71875 61.359375 L 66.125 61.636719 L 66.144531 61.519531 L 66.09375 61.476562 L 65.976562 61.457031 L 65.9375 61.507812 M 66.75 62.074219 L 66.34375 61.796875 L 66.75 62.074219 L 65.925781 62.566406 L 65.808594 61.882812 L 65.53125 62.289062 L 65.035156 61.46875 L 65.3125 61.070312 L 72.25 51.023438 L 72.65625 51.300781 L 72.25 51.023438 L 73.070312 50.527344 L 73.46875 50.804688 L 73.964844 51.625 L 73.28125 51.746094 L 73.6875 52.023438 L 66.738281 62.074219 Z M 66.75 62.074219 " clip-rule="nonzero"/></clipPath><clipPath id="7190184346"><path d="M 15.355469 31.511719 L 25.273438 31.511719 L 25.273438 62 L 15.355469 62 Z M 15.355469 31.511719 " clip-rule="nonzero"/></clipPath><clipPath id="9457abc21d"><path d="M 15.492188 32.183594 L 24.320312 61.675781 C 24.378906 61.875 24.597656 61.992188 24.796875 61.933594 L 25.113281 61.65625 L 16.214844 31.953125 C 16.15625 31.757812 15.945312 31.636719 15.738281 31.695312 L 15.421875 31.972656 " clip-rule="nonzero"/></clipPath><clipPath id="95fdf89c54"><path d="M 15 31.191406 L 25.59375 31.191406 L 25.59375 62.542969 L 15 62.542969 Z M 15 31.191406 " clip-rule="nonzero"/></clipPath><clipPath id="c519585840"><path d="M 15.964844 32.035156 L 24.796875 61.539062 C 24.777344 61.476562 24.71875 61.4375 24.65625 61.457031 L 24.558594 61.539062 L 24.578125 61.597656 L 15.75 32.09375 L 16.222656 31.953125 L 15.75 32.09375 L 15.828125 32.191406 L 15.75 31.695312 L 15.886719 32.171875 L 15.984375 32.09375 L 15.964844 32.035156 M 15.015625 32.320312 L 15.492188 32.183594 L 15.015625 32.320312 L 15.144531 31.371094 L 15.609375 31.230469 L 16.5625 31.359375 L 25.53125 61.320312 L 25.054688 61.457031 L 25.53125 61.320312 L 25.402344 62.269531 L 24.796875 61.933594 L 24.933594 62.410156 L 23.984375 62.289062 L 24.320312 61.6875 L 23.84375 61.824219 L 15.015625 32.332031 Z M 15.015625 32.320312 " clip-rule="nonzero"/></clipPath><clipPath id="88e3920534"><path d="M 5.4375 23.515625 L 16.316406 23.515625 L 16.316406 32.472656 L 5.4375 32.472656 Z M 5.4375 23.515625 " clip-rule="nonzero"/></clipPath><clipPath id="3bee92dcfa"><path d="M 5.699219 24.324219 L 15.578125 32.320312 C 15.75 32.449219 15.984375 32.429688 16.113281 32.261719 L 16.222656 31.855469 L 6.175781 23.726562 C 6.007812 23.597656 5.769531 23.621094 5.640625 23.789062 L 5.53125 24.195312 " clip-rule="nonzero"/></clipPath><clipPath id="3b9ed5f24b"><path d="M 4.796875 23 L 16.953125 23 L 16.953125 33.109375 L 4.796875 33.109375 Z M 4.796875 23 " clip-rule="nonzero"/></clipPath><clipPath id="56f5002191"><path d="M 6.015625 23.9375 L 15.898438 31.933594 C 15.847656 31.894531 15.777344 31.90625 15.738281 31.953125 L 16.125 32.269531 L 15.738281 31.953125 L 15.707031 32.074219 L 16.066406 31.726562 L 15.757812 32.113281 L 5.878906 24.113281 C 5.925781 24.15625 5.996094 24.144531 6.035156 24.09375 L 6.066406 23.976562 L 5.707031 24.324219 L 6.015625 23.9375 M 5.390625 24.710938 L 4.957031 23.855469 L 5.648438 23.789062 L 5.261719 23.46875 L 6.113281 23.035156 L 6.183594 23.726562 L 6.492188 23.34375 L 16.371094 31.339844 C 16.75 31.648438 16.808594 32.191406 16.5 32.570312 L 15.648438 33.003906 L 15.578125 32.3125 L 15.273438 32.699219 L 5.390625 24.699219 Z M 5.390625 24.710938 " clip-rule="nonzero"/></clipPath><clipPath id="6aff48dc2c"><path d="M 19.515625 77 L 28.472656 77 L 28.472656 85.894531 L 19.515625 85.894531 Z M 19.515625 77 " clip-rule="nonzero"/></clipPath><clipPath id="4cb2075790"><path d="M 28.226562 81.410156 C 28.226562 83.785156 26.292969 85.71875 23.914062 85.71875 C 21.535156 85.71875 19.601562 83.785156 19.601562 81.410156 C 19.601562 79.03125 21.535156 77.097656 23.914062 77.097656 C 26.292969 77.097656 28.226562 79.03125 28.226562 81.410156 " clip-rule="nonzero"/></clipPath><clipPath id="65d9ad06af"><path d="M 57.582031 77 L 66.539062 77 L 66.539062 85.894531 L 57.582031 85.894531 Z M 57.582031 77 " clip-rule="nonzero"/></clipPath><clipPath id="b96fdac90b"><path d="M 66.390625 81.410156 C 66.390625 83.785156 64.460938 85.71875 62.082031 85.71875 C 59.703125 85.71875 57.769531 83.785156 57.769531 81.410156 C 57.769531 79.03125 59.703125 77.097656 62.082031 77.097656 C 64.460938 77.097656 66.390625 79.03125 66.390625 81.410156 " clip-rule="nonzero"/></clipPath></defs><g clip-path="url(#d7748942a1)"><g clip-path="url(#2fe4520458)"><path fill="#231f20" d="M 0 0.160156 L 81.894531 0.160156 L 81.894531 90.695312 L 0 90.695312 Z M 0 0.160156 " fill-opacity="1" fill-rule="nonzero"/></g></g><g clip-path="url(#69fd24175f)"><g clip-path="url(#dd13adf5c1)"><path fill="#231f20" d="M 0 0.160156 L 81.894531 0.160156 L 81.894531 90.695312 L 0 90.695312 Z M 0 0.160156 " fill-opacity="1" fill-rule="nonzero"/></g></g><g clip-path="url(#e38441b8eb)"><g clip-path="url(#700c21145e)"><path fill="#231f20" d="M 0 0.160156 L 81.894531 0.160156 L 81.894531 90.695312 L 0 90.695312 Z M 0 0.160156 " fill-opacity="1" fill-rule="nonzero"/></g></g><g clip-path="url(#0ae15b58dd)"><path fill="#231f20" d="M 0 0.160156 L 81.894531 0.160156 L 81.894531 90.695312 L 0 90.695312 Z M 0 0.160156 " fill-opacity="1" fill-rule="nonzero"/></g><g clip-path="url(#958105ff28)"><g clip-path="url(#29475c1542)"><path fill="#231f20" d="M 0 0.160156 L 81.894531 0.160156 L 81.894531 90.695312 L 0 90.695312 Z M 0 0.160156 " fill-opacity="1" fill-rule="nonzero"/></g></g><g clip-path="url(#3f5c63bcc1)"><g clip-path="url(#d7719ad08c)"><path fill="#231f20" d="M 0 0.160156 L 81.894531 0.160156 L 81.894531 90.695312 L 0 90.695312 Z M 0 0.160156 " fill-opacity="1" fill-rule="nonzero"/></g></g><g clip-path="url(#25abedf69a)"><path fill="#231f20" d="M 0 0.160156 L 81.894531 0.160156 L 81.894531 90.695312 L 0 90.695312 Z M 0 0.160156 " fill-opacity="1" fill-rule="nonzero"/></g><g clip-path="url(#d7a41fa1dd)"><g clip-path="url(#cf49885ab4)"><path fill="#231f20" d="M 0 0.160156 L 81.894531 0.160156 L 81.894531 90.695312 L 0 90.695312 Z M 0 0.160156 " fill-opacity="1" fill-rule="nonzero"/></g></g><g clip-path="url(#dd11b931cc)"><g clip-path="url(#5cf2bda149)"><path fill="#231f20" d="M 0 0.160156 L 81.894531 0.160156 L 81.894531 90.695312 L 0 90.695312 Z M 0 0.160156 " fill-opacity="1" fill-rule="nonzero"/></g></g><g clip-path="url(#e7c91c3102)"><g clip-path="url(#0a2e9a6fa8)"><path fill="#ffffff" d="M 0 0.160156 L 81.894531 0.160156 L 81.894531 90.695312 L 0 90.695312 Z M 0 0.160156 " fill-opacity="1" fill-rule="nonzero"/></g></g><g clip-path="url(#df2c495861)"><g clip-path="url(#208458f226)"><path fill="#231f20" d="M 0 0.160156 L 81.894531 0.160156 L 81.894531 90.695312 L 0 90.695312 Z M 0 0.160156 " fill-opacity="1" fill-rule="nonzero"/></g></g><g clip-path="url(#b84b9ecc29)"><g clip-path="url(#29fb45c5e5)"><path fill="#ffffff" d="M 0 0.160156 L 81.894531 0.160156 L 81.894531 90.695312 L 0 90.695312 Z M 0 0.160156 " fill-opacity="1" fill-rule="nonzero"/></g></g><g clip-path="url(#3ad9bc37f8)"><g clip-path="url(#2a05a82794)"><path fill="#231f20" d="M 0 0.160156 L 81.894531 0.160156 L 81.894531 90.695312 L 0 90.695312 Z M 0 0.160156 " fill-opacity="1" fill-rule="nonzero"/></g></g><g clip-path="url(#ce6b6312a4)"><g clip-path="url(#c41cf53762)"><path fill="#ffffff" d="M 0 0.160156 L 81.894531 0.160156 L 81.894531 90.695312 L 0 90.695312 Z M 0 0.160156 " fill-opacity="1" fill-rule="nonzero"/></g></g><g clip-path="url(#12411e8d6b)"><g clip-path="url(#6e561ba5e9)"><path fill="#231f20" d="M 0 0.160156 L 81.894531 0.160156 L 81.894531 90.695312 L 0 90.695312 Z M 0 0.160156 " fill-opacity="1" fill-rule="nonzero"/></g></g><g clip-path="url(#8093481ff6)"><g clip-path="url(#8f6040ea48)"><path fill="#ffffff" d="M 0 0.160156 L 81.894531 0.160156 L 81.894531 90.695312 L 0 90.695312 Z M 0 0.160156 " fill-opacity="1" fill-rule="nonzero"/></g></g><g clip-path="url(#9e8234e56c)"><g clip-path="url(#1d224fbecd)"><path fill="#231f20" d="M 0 0.160156 L 81.894531 0.160156 L 81.894531 90.695312 L 0 90.695312 Z M 0 0.160156 " fill-opacity="1" fill-rule="nonzero"/></g></g><g clip-path="url(#7190184346)"><g clip-path="url(#9457abc21d)"><path fill="#ffffff" d="M 0 0.160156 L 81.894531 0.160156 L 81.894531 90.695312 L 0 90.695312 Z M 0 0.160156 " fill-opacity="1" fill-rule="nonzero"/></g></g><g clip-path="url(#95fdf89c54)"><g clip-path="url(#c519585840)"><path fill="#231f20" d="M 0 0.160156 L 81.894531 0.160156 L 81.894531 90.695312 L 0 90.695312 Z M 0 0.160156 " fill-opacity="1" fill-rule="nonzero"/></g></g><g clip-path="url(#88e3920534)"><g clip-path="url(#3bee92dcfa)"><path fill="#ffffff" d="M 0 0.160156 L 81.894531 0.160156 L 81.894531 90.695312 L 0 90.695312 Z M 0 0.160156 " fill-opacity="1" fill-rule="nonzero"/></g></g><g clip-path="url(#3b9ed5f24b)"><g clip-path="url(#56f5002191)"><path fill="#231f20" d="M 0 0.160156 L 81.894531 0.160156 L 81.894531 90.695312 L 0 90.695312 Z M 0 0.160156 " fill-opacity="1" fill-rule="nonzero"/></g></g><g clip-path="url(#6aff48dc2c)"><g clip-path="url(#4cb2075790)"><path fill="#231f20" d="M 0 0.160156 L 81.894531 0.160156 L 81.894531 90.695312 L 0 90.695312 Z M 0 0.160156 " fill-opacity="1" fill-rule="nonzero"/></g></g><g clip-path="url(#65d9ad06af)"><g clip-path="url(#b96fdac90b)"><path fill="#231f20" d="M 0 0.160156 L 81.894531 0.160156 L 81.894531 90.695312 L 0 90.695312 Z M 0 0.160156 " fill-opacity="1" fill-rule="nonzero"/></g></g></svg>