<svg xmlns="http://www.w3.org/2000/svg" xmlns:xlink="http://www.w3.org/1999/xlink" width="400" zoomAndPan="magnify" viewBox="0 0 300 272.999983" height="364" preserveAspectRatio="xMidYMid meet" version="1.0"><path fill="#1b1c1e" d="M 27.320312 54.523438 L 272.679688 54.523438 C 273.574219 54.523438 274.464844 54.480469 275.351562 54.394531 C 276.242188 54.304688 277.125 54.175781 278 54 C 278.875 53.828125 279.742188 53.609375 280.59375 53.351562 C 281.449219 53.09375 282.289062 52.792969 283.113281 52.449219 C 283.9375 52.109375 284.746094 51.726562 285.53125 51.304688 C 286.320312 50.886719 287.085938 50.425781 287.828125 49.929688 C 288.570312 49.433594 289.285156 48.902344 289.976562 48.335938 C 290.667969 47.769531 291.328125 47.171875 291.957031 46.539062 C 292.589844 45.910156 293.1875 45.246094 293.753906 44.558594 C 294.320312 43.867188 294.851562 43.152344 295.347656 42.410156 C 295.84375 41.667969 296.304688 40.902344 296.722656 40.113281 C 297.144531 39.328125 297.527344 38.519531 297.867188 37.695312 C 298.210938 36.871094 298.511719 36.03125 298.769531 35.175781 C 299.027344 34.320312 299.246094 33.457031 299.417969 32.582031 C 299.59375 31.707031 299.726562 30.824219 299.8125 29.933594 C 299.898438 29.046875 299.945312 28.15625 299.945312 27.261719 C 299.945312 26.371094 299.898438 25.480469 299.8125 24.589844 C 299.726562 23.703125 299.59375 22.820312 299.417969 21.945312 C 299.246094 21.066406 299.027344 20.203125 298.769531 19.347656 C 298.511719 18.496094 298.210938 17.65625 297.867188 16.828125 C 297.527344 16.003906 297.144531 15.199219 296.722656 14.410156 C 296.304688 13.625 295.84375 12.859375 295.347656 12.117188 C 294.851562 11.375 294.320312 10.65625 293.753906 9.96875 C 293.1875 9.277344 292.589844 8.617188 291.957031 7.984375 C 291.328125 7.355469 290.667969 6.753906 289.976562 6.1875 C 289.285156 5.621094 288.570312 5.089844 287.828125 4.59375 C 287.085938 4.097656 286.320312 3.640625 285.53125 3.21875 C 284.746094 2.796875 283.9375 2.417969 283.113281 2.074219 C 282.289062 1.734375 281.449219 1.433594 280.59375 1.175781 C 279.742188 0.914062 278.875 0.699219 278 0.523438 C 277.125 0.351562 276.242188 0.21875 275.351562 0.132812 C 274.464844 0.0429688 273.574219 0 272.679688 0 L 27.320312 0 C 26.425781 0 25.535156 0.0429688 24.648438 0.132812 C 23.757812 0.21875 22.875 0.351562 22 0.523438 C 21.125 0.699219 20.257812 0.914062 19.40625 1.175781 C 18.550781 1.433594 17.710938 1.734375 16.886719 2.074219 C 16.0625 2.417969 15.253906 2.796875 14.46875 3.21875 C 13.679688 3.640625 12.914062 4.097656 12.171875 4.59375 C 11.429688 5.089844 10.714844 5.621094 10.023438 6.1875 C 9.332031 6.753906 8.671875 7.355469 8.042969 7.984375 C 7.410156 8.617188 6.8125 9.277344 6.246094 9.96875 C 5.679688 10.65625 5.148438 11.375 4.652344 12.117188 C 4.15625 12.859375 3.695312 13.625 3.273438 14.410156 C 2.855469 15.199219 2.472656 16.003906 2.132812 16.828125 C 1.789062 17.65625 1.488281 18.496094 1.230469 19.347656 C 0.972656 20.203125 0.753906 21.066406 0.582031 21.945312 C 0.40625 22.820312 0.273438 23.703125 0.1875 24.589844 C 0.101562 25.480469 0.0546875 26.371094 0.0546875 27.261719 C 0.0546875 28.15625 0.101562 29.046875 0.1875 29.933594 C 0.273438 30.824219 0.40625 31.707031 0.582031 32.582031 C 0.753906 33.457031 0.972656 34.320312 1.230469 35.175781 C 1.488281 36.03125 1.789062 36.871094 2.132812 37.695312 C 2.472656 38.519531 2.855469 39.328125 3.273438 40.113281 C 3.695312 40.902344 4.15625 41.667969 4.652344 42.410156 C 5.148438 43.152344 5.679688 43.867188 6.246094 44.558594 C 6.8125 45.246094 7.410156 45.910156 8.042969 46.539062 C 8.671875 47.171875 9.332031 47.769531 10.023438 48.335938 C 10.714844 48.902344 11.429688 49.433594 12.171875 49.929688 C 12.914062 50.425781 13.679688 50.886719 14.46875 51.304688 C 15.253906 51.726562 16.0625 52.109375 16.886719 52.449219 C 17.710938 52.792969 18.550781 53.09375 19.40625 53.351562 C 20.257812 53.609375 21.125 53.828125 22 54 C 22.875 54.175781 23.757812 54.304688 24.648438 54.394531 C 25.535156 54.480469 26.425781 54.523438 27.320312 54.523438 Z M 27.320312 54.523438 " fill-opacity="1" fill-rule="nonzero"/><path fill="#1b1c1e" d="M 272.679688 109.050781 L 27.320312 109.050781 C 26.425781 109.050781 25.535156 109.09375 24.648438 109.179688 C 23.757812 109.269531 22.875 109.398438 22 109.574219 C 21.125 109.746094 20.257812 109.964844 19.40625 110.222656 C 18.550781 110.484375 17.710938 110.785156 16.886719 111.125 C 16.0625 111.46875 15.253906 111.847656 14.46875 112.269531 C 13.679688 112.691406 12.914062 113.148438 12.171875 113.644531 C 11.429688 114.140625 10.714844 114.671875 10.023438 115.238281 C 9.332031 115.804688 8.671875 116.402344 8.042969 117.035156 C 7.410156 117.667969 6.8125 118.328125 6.246094 119.015625 C 5.679688 119.707031 5.148438 120.421875 4.652344 121.167969 C 4.15625 121.910156 3.695312 122.671875 3.273438 123.460938 C 2.855469 124.25 2.472656 125.054688 2.132812 125.878906 C 1.789062 126.703125 1.488281 127.542969 1.230469 128.398438 C 0.972656 129.253906 0.753906 130.117188 0.582031 130.992188 C 0.40625 131.871094 0.273438 132.75 0.1875 133.640625 C 0.101562 134.527344 0.0546875 135.417969 0.0546875 136.3125 C 0.0546875 137.207031 0.101562 138.097656 0.1875 138.984375 C 0.273438 139.875 0.40625 140.753906 0.582031 141.632812 C 0.753906 142.507812 0.972656 143.371094 1.230469 144.226562 C 1.488281 145.082031 1.789062 145.921875 2.132812 146.746094 C 2.472656 147.570312 2.855469 148.375 3.273438 149.164062 C 3.695312 149.953125 4.15625 150.714844 4.652344 151.457031 C 5.148438 152.199219 5.679688 152.917969 6.246094 153.609375 C 6.8125 154.296875 7.410156 154.957031 8.042969 155.589844 C 8.671875 156.222656 9.332031 156.820312 10.023438 157.386719 C 10.714844 157.953125 11.429688 158.484375 12.171875 158.980469 C 12.914062 159.476562 13.679688 159.933594 14.46875 160.355469 C 15.253906 160.777344 16.0625 161.15625 16.886719 161.5 C 17.710938 161.839844 18.550781 162.140625 19.40625 162.402344 C 20.257812 162.660156 21.125 162.875 22 163.050781 C 22.875 163.226562 23.757812 163.355469 24.648438 163.445312 C 25.535156 163.53125 26.425781 163.574219 27.320312 163.574219 L 272.679688 163.574219 C 273.574219 163.574219 274.464844 163.53125 275.351562 163.445312 C 276.242188 163.355469 277.125 163.226562 278 163.050781 C 278.875 162.875 279.742188 162.660156 280.59375 162.402344 C 281.449219 162.140625 282.289062 161.839844 283.113281 161.5 C 283.9375 161.15625 284.746094 160.777344 285.53125 160.355469 C 286.320312 159.933594 287.085938 159.476562 287.828125 158.980469 C 288.570312 158.484375 289.285156 157.953125 289.976562 157.386719 C 290.667969 156.820312 291.328125 156.222656 291.957031 155.589844 C 292.589844 154.957031 293.1875 154.296875 293.753906 153.609375 C 294.320312 152.917969 294.851562 152.199219 295.347656 151.457031 C 295.84375 150.714844 296.304688 149.953125 296.722656 149.164062 C 297.144531 148.375 297.527344 147.570312 297.867188 146.746094 C 298.210938 145.921875 298.511719 145.082031 298.769531 144.226562 C 299.027344 143.371094 299.246094 142.507812 299.417969 141.632812 C 299.59375 140.753906 299.726562 139.875 299.8125 138.984375 C 299.898438 138.097656 299.945312 137.207031 299.945312 136.3125 C 299.945312 135.417969 299.898438 134.527344 299.8125 133.640625 C 299.726562 132.75 299.59375 131.871094 299.417969 130.992188 C 299.246094 130.117188 299.027344 129.253906 298.769531 128.398438 C 298.511719 127.542969 298.210938 126.703125 297.867188 125.878906 C 297.527344 125.054688 297.144531 124.25 296.722656 123.460938 C 296.304688 122.671875 295.84375 121.910156 295.347656 121.167969 C 294.851562 120.421875 294.320312 119.707031 293.753906 119.015625 C 293.1875 118.328125 292.589844 117.667969 291.957031 117.035156 C 291.328125 116.402344 290.667969 115.804688 289.976562 115.238281 C 289.285156 114.671875 288.570312 114.140625 287.828125 113.644531 C 287.085938 113.148438 286.320312 112.691406 285.53125 112.269531 C 284.746094 111.847656 283.9375 111.46875 283.113281 111.125 C 282.289062 110.785156 281.449219 110.484375 280.59375 110.222656 C 279.742188 109.964844 278.875 109.746094 278 109.574219 C 277.125 109.398438 276.242188 109.269531 275.351562 109.179688 C 274.464844 109.09375 273.574219 109.050781 272.679688 109.050781 Z M 272.679688 109.050781 " fill-opacity="1" fill-rule="nonzero"/><path fill="#1b1c1e" d="M 272.679688 218.101562 L 27.320312 218.101562 C 26.425781 218.101562 25.535156 218.144531 24.648438 218.230469 C 23.757812 218.320312 22.875 218.449219 22 218.625 C 21.125 218.796875 20.257812 219.015625 19.40625 219.273438 C 18.550781 219.53125 17.710938 219.832031 16.886719 220.175781 C 16.0625 220.515625 15.253906 220.898438 14.46875 221.320312 C 13.679688 221.738281 12.914062 222.199219 12.171875 222.695312 C 11.429688 223.191406 10.714844 223.722656 10.023438 224.289062 C 9.332031 224.855469 8.671875 225.453125 8.042969 226.085938 C 7.410156 226.714844 6.8125 227.378906 6.246094 228.066406 C 5.679688 228.757812 5.148438 229.472656 4.652344 230.214844 C 4.15625 230.957031 3.695312 231.722656 3.273438 232.511719 C 2.855469 233.296875 2.472656 234.105469 2.132812 234.929688 C 1.789062 235.753906 1.488281 236.59375 1.230469 237.449219 C 0.972656 238.304688 0.753906 239.167969 0.582031 240.042969 C 0.40625 240.917969 0.273438 241.800781 0.1875 242.691406 C 0.101562 243.578125 0.0546875 244.46875 0.0546875 245.363281 C 0.0546875 246.253906 0.101562 247.144531 0.1875 248.035156 C 0.273438 248.921875 0.40625 249.804688 0.582031 250.679688 C 0.753906 251.558594 0.972656 252.421875 1.230469 253.277344 C 1.488281 254.128906 1.789062 254.96875 2.132812 255.796875 C 2.472656 256.621094 2.855469 257.425781 3.273438 258.214844 C 3.695312 259 4.15625 259.765625 4.652344 260.507812 C 5.148438 261.25 5.679688 261.96875 6.246094 262.65625 C 6.8125 263.347656 7.410156 264.007812 8.042969 264.640625 C 8.671875 265.269531 9.332031 265.871094 10.023438 266.4375 C 10.714844 267.003906 11.429688 267.535156 12.171875 268.03125 C 12.914062 268.527344 13.679688 268.984375 14.46875 269.40625 C 15.253906 269.828125 16.0625 270.207031 16.886719 270.550781 C 17.710938 270.890625 18.550781 271.191406 19.40625 271.449219 C 20.257812 271.710938 21.125 271.925781 22 272.101562 C 22.875 272.273438 23.757812 272.40625 24.648438 272.492188 C 25.535156 272.582031 26.425781 272.625 27.320312 272.625 L 272.679688 272.625 C 273.574219 272.625 274.464844 272.582031 275.351562 272.492188 C 276.242188 272.40625 277.125 272.273438 278 272.101562 C 278.875 271.925781 279.742188 271.710938 280.59375 271.449219 C 281.449219 271.191406 282.289062 270.890625 283.113281 270.550781 C 283.9375 270.207031 284.746094 269.828125 285.53125 269.40625 C 286.320312 268.984375 287.085938 268.527344 287.828125 268.03125 C 288.570312 267.535156 289.285156 267.003906 289.976562 266.4375 C 290.667969 265.871094 291.328125 265.269531 291.957031 264.640625 C 292.589844 264.007812 293.1875 263.347656 293.753906 262.65625 C 294.320312 261.96875 294.851562 261.25 295.347656 260.507812 C 295.84375 259.765625 296.304688 259 296.722656 258.214844 C 297.144531 257.425781 297.527344 256.621094 297.867188 255.796875 C 298.210938 254.96875 298.511719 254.128906 298.769531 253.277344 C 299.027344 252.421875 299.246094 251.558594 299.417969 250.679688 C 299.59375 249.804688 299.726562 248.921875 299.8125 248.035156 C 299.898438 247.144531 299.945312 246.253906 299.945312 245.363281 C 299.945312 244.46875 299.898438 243.578125 299.8125 242.691406 C 299.726562 241.800781 299.59375 240.917969 299.417969 240.042969 C 299.246094 239.167969 299.027344 238.304688 298.769531 237.449219 C 298.511719 236.59375 298.210938 235.753906 297.867188 234.929688 C 297.527344 234.105469 297.144531 233.296875 296.722656 232.511719 C 296.304688 231.722656 295.84375 230.957031 295.347656 230.214844 C 294.851562 229.472656 294.320312 228.757812 293.753906 228.066406 C 293.1875 227.378906 292.589844 226.714844 291.957031 226.085938 C 291.328125 225.453125 290.667969 224.855469 289.976562 224.289062 C 289.285156 223.722656 288.570312 223.191406 287.828125 222.695312 C 287.085938 222.199219 286.320312 221.738281 285.53125 221.320312 C 284.746094 220.898438 283.9375 220.515625 283.113281 220.175781 C 282.289062 219.832031 281.449219 219.53125 280.59375 219.273438 C 279.742188 219.015625 278.875 218.796875 278 218.625 C 277.125 218.449219 276.242188 218.320312 275.351562 218.230469 C 274.464844 218.144531 273.574219 218.101562 272.679688 218.101562 Z M 272.679688 218.101562 " fill-opacity="1" fill-rule="nonzero"/></svg>