<svg xmlns="http://www.w3.org/2000/svg" xmlns:xlink="http://www.w3.org/1999/xlink" width="579" zoomAndPan="magnify" viewBox="0 0 434.25 434.249989" height="579" preserveAspectRatio="xMidYMid meet" version="1.0"><defs><clipPath id="ca7386caa6"><path d="M 0 0 L 433.03125 0 L 433.03125 433.03125 L 0 433.03125 Z M 0 0 " clip-rule="nonzero"/></clipPath><clipPath id="265371ec0d"><path d="M 216.515625 0 C 96.9375 0 0 96.9375 0 216.515625 C 0 336.09375 96.9375 433.03125 216.515625 433.03125 C 336.09375 433.03125 433.03125 336.09375 433.03125 216.515625 C 433.03125 96.9375 336.09375 0 216.515625 0 Z M 216.515625 0 " clip-rule="nonzero"/></clipPath><clipPath id="18cb20ceff"><path d="M 230 66.773438 L 242 66.773438 L 242 103 L 230 103 Z M 230 66.773438 " clip-rule="nonzero"/></clipPath><clipPath id="7763d887bd"><path d="M 69.207031 135 L 316 135 L 316 366.257812 L 69.207031 366.257812 Z M 69.207031 135 " clip-rule="nonzero"/></clipPath><clipPath id="349784a3d4"><path d="M 243 254 L 364 254 L 364 366.257812 L 243 366.257812 Z M 243 254 " clip-rule="nonzero"/></clipPath></defs><g clip-path="url(#ca7386caa6)"><g clip-path="url(#265371ec0d)"><path fill="#3df8bd" d="M 0 0 L 433.03125 0 L 433.03125 433.03125 L 0 433.03125 Z M 0 0 " fill-opacity="1" fill-rule="nonzero"/></g></g><g clip-path="url(#18cb20ceff)"><path fill="#202528" d="M 236.074219 102.675781 C 238.886719 102.675781 241.164062 100.398438 241.164062 97.589844 L 241.164062 71.871094 C 241.164062 69.050781 238.886719 66.773438 236.074219 66.773438 C 233.257812 66.773438 230.984375 69.050781 230.984375 71.871094 L 230.984375 97.589844 C 230.984375 100.398438 233.257812 102.675781 236.074219 102.675781 Z M 236.074219 102.675781 " fill-opacity="1" fill-rule="nonzero"/></g><path fill="#202528" d="M 167.179688 114.652344 C 168.175781 116.011719 169.714844 116.742188 171.285156 116.742188 C 172.328125 116.742188 173.386719 116.410156 174.292969 115.75 C 176.558594 114.089844 177.046875 110.902344 175.386719 108.636719 L 160.164062 87.898438 C 158.503906 85.632812 155.320312 85.136719 153.050781 86.800781 C 150.78125 88.464844 150.296875 91.652344 151.957031 93.917969 Z M 167.179688 114.652344 " fill-opacity="1" fill-rule="nonzero"/><path fill="#202528" d="M 296.761719 108.636719 C 295.097656 110.902344 295.585938 114.089844 297.855469 115.75 C 298.761719 116.410156 299.816406 116.742188 300.859375 116.742188 C 302.425781 116.742188 303.976562 116.015625 304.96875 114.652344 L 320.191406 93.917969 C 321.855469 91.652344 321.363281 88.464844 319.097656 86.800781 C 316.820312 85.128906 313.640625 85.632812 311.984375 87.898438 " fill-opacity="1" fill-rule="nonzero"/><path fill="#202528" d="M 170.78125 161.570312 C 170.804688 161.589844 170.832031 161.609375 170.859375 161.636719 L 199.0625 185.453125 C 199.726562 186.007812 200.261719 186.679688 200.847656 187.3125 C 201.265625 187.5 201.691406 187.667969 202.058594 187.972656 C 204.152344 189.738281 206.832031 190.558594 209.570312 190.351562 C 212.324219 190.113281 214.816406 188.832031 216.574219 186.746094 C 218.476562 184.824219 219.304688 182.570312 219.203125 180.074219 C 219.082031 177.085938 217.640625 174.148438 215.351562 172.226562 L 201.058594 160.15625 C 201.042969 160.144531 201.035156 160.144531 201.03125 160.136719 L 180.429688 142.726562 C 176.089844 139.066406 169.574219 139.621094 165.898438 143.972656 C 162.238281 148.3125 162.792969 154.832031 167.136719 158.503906 Z M 170.78125 161.570312 " fill-opacity="1" fill-rule="nonzero"/><g clip-path="url(#7763d887bd)"><path fill="#202528" d="M 224.234375 166.847656 C 227.296875 170.410156 229.171875 174.894531 229.371094 179.644531 C 229.597656 185.023438 227.707031 189.988281 224.054688 193.621094 C 220.839844 197.46875 215.894531 200.027344 210.425781 200.488281 C 209.835938 200.539062 209.238281 200.566406 208.652344 200.566406 C 207.917969 200.566406 207.199219 200.457031 206.472656 200.378906 C 206.480469 200.464844 206.511719 200.546875 206.515625 200.632812 C 206.75 206 204.875 210.976562 201.238281 214.632812 C 197.40625 219.164062 191.824219 221.519531 186.144531 221.578125 C 186.992188 227.210938 185.601562 233.160156 181.660156 237.851562 C 178.804688 241.21875 175.078125 243.375 171.089844 244.390625 C 172.367188 246.808594 173.171875 249.46875 173.40625 252.28125 C 173.863281 257.742188 172.171875 263.046875 168.652344 267.207031 C 165.148438 271.363281 160.207031 273.914062 154.746094 274.375 C 154.152344 274.421875 153.558594 274.453125 152.972656 274.453125 C 148.152344 274.453125 143.535156 272.769531 139.808594 269.640625 L 123.964844 256.289062 L 69.601562 304.78125 L 125.625 366.257812 L 200.171875 294.746094 C 201.363281 293.707031 202.976562 293.269531 204.5 293.605469 C 214.9375 295.679688 223.734375 297.117188 231.996094 296.535156 C 232.085938 296.527344 232.15625 296.515625 232.242188 296.515625 C 241.628906 295.816406 250.320312 292.496094 259.898438 284.421875 L 311.421875 237.722656 C 311.421875 237.722656 318.308594 231.410156 313.351562 225.816406 C 310.699219 222.816406 307.476562 220.636719 303.917969 219.5 C 309.335938 212.058594 309.214844 201.574219 303.019531 194.238281 C 300.363281 191.078125 296.878906 188.84375 292.980469 187.746094 C 297.304688 180.460938 296.789062 170.90625 291.023438 164.058594 C 287.839844 160.285156 283.488281 157.851562 278.644531 157.070312 C 280.804688 150.523438 280.234375 142.46875 274.875 137.410156 C 269.46875 132.3125 260.84375 137.476562 260.84375 137.476562 Z M 224.234375 166.847656 " fill-opacity="1" fill-rule="nonzero"/></g><g clip-path="url(#349784a3d4)"><path fill="#202528" d="M 266.59375 292.085938 C 258.785156 298.679688 251.371094 302.628906 243.957031 304.746094 L 314.03125 366.058594 L 363.433594 304.820312 L 307.558594 254.972656 Z M 266.59375 292.085938 " fill-opacity="1" fill-rule="nonzero"/></g><path fill="#202528" d="M 203.390625 136.894531 C 200.925781 140.582031 200.257812 146.148438 203.871094 149.195312 C 203.878906 149.207031 203.886719 149.214844 203.894531 149.222656 L 216.578125 159.933594 L 237.550781 143.113281 L 218.144531 134.058594 C 209.503906 129.578125 204.953125 134.550781 203.390625 136.894531 Z M 203.390625 136.894531 " fill-opacity="1" fill-rule="nonzero"/><path fill="#202528" d="M 138.992188 215.328125 L 148.507812 223.355469 L 148.515625 223.355469 C 148.539062 223.375 148.542969 223.414062 148.566406 223.433594 L 159.355469 232.527344 C 163.707031 236.171875 170.210938 235.605469 173.875 231.28125 C 177.527344 226.945312 176.976562 220.425781 172.628906 216.753906 L 152.335938 199.601562 C 152.320312 199.589844 152.300781 199.589844 152.28125 199.582031 L 152.257812 199.550781 C 150.171875 197.796875 147.492188 196.976562 144.765625 197.195312 C 142.011719 197.421875 139.519531 198.707031 137.753906 200.796875 C 134.101562 205.140625 134.65625 211.65625 138.992188 215.328125 Z M 138.992188 215.328125 " fill-opacity="1" fill-rule="nonzero"/><path fill="#202528" d="M 149.757812 170.628906 C 147.996094 172.722656 147.152344 175.390625 147.382812 178.160156 C 147.617188 180.910156 148.894531 183.394531 150.984375 185.148438 L 158.742188 191.703125 C 158.765625 191.722656 158.785156 191.722656 158.796875 191.742188 L 179.203125 208.976562 C 183.53125 212.628906 190.070312 212.082031 193.746094 207.738281 C 195.632812 205.828125 196.460938 203.5625 196.351562 201.070312 C 196.21875 198.078125 194.785156 195.152344 192.5 193.230469 L 164.304688 169.414062 L 164.300781 169.414062 L 164.25 169.375 C 159.894531 165.738281 153.417969 166.300781 149.757812 170.628906 Z M 149.757812 170.628906 " fill-opacity="1" fill-rule="nonzero"/><path fill="#202528" d="M 128.660156 246.914062 L 146.375 261.847656 C 148.472656 263.613281 151.105469 264.441406 153.890625 264.226562 C 156.640625 263.988281 159.117188 262.710938 160.875 260.632812 C 162.652344 258.527344 163.5 255.871094 163.265625 253.109375 C 163.035156 250.351562 161.753906 247.867188 159.667969 246.101562 L 152.8125 240.332031 C 152.804688 240.320312 152.792969 240.320312 152.785156 240.3125 C 152.78125 240.300781 152.78125 240.300781 152.773438 240.292969 L 141.808594 231.046875 C 137.476562 227.511719 131.050781 228.085938 127.421875 232.382812 C 123.765625 236.71875 124.3125 243.234375 128.660156 246.914062 Z M 128.660156 246.914062 " fill-opacity="1" fill-rule="nonzero"/></svg>